<svg width="10" height="10" viewBox="0 0 10 10" fill="none" xmlns="http://www.w3.org/2000/svg">
<path d="M9.7125 6.06125C9.785 5.73562 9.8225 5.39813 9.8225 5.05188C9.8225 2.455 7.6875 0.349375 5.05312 0.349375C4.77563 0.349375 4.50313 0.373125 4.2375 0.418125C3.81125 0.15375 3.30687 0 2.76625 0C1.23813 0 0 1.22062 0 2.7275C0 3.23062 0.13875 3.70125 0.38 4.10687C0.315604 4.41775 0.283144 4.7344 0.283125 5.05188C0.283125 7.64937 2.41875 9.755 5.0525 9.755C5.35125 9.755 5.64313 9.7275 5.92625 9.67625C6.31625 9.8825 6.76125 10 7.23438 10C8.76188 10 10 8.77875 10 7.27313C10 6.8375 9.89625 6.42688 9.7125 6.06125ZM7.49937 7.29938C7.27875 7.6075 6.95312 7.85125 6.53 8.02375C6.11188 8.19563 5.61125 8.28312 5.04 8.28312C4.355 8.28312 3.78062 8.16438 3.33187 7.92938C3.01125 7.75875 2.7475 7.52812 2.54688 7.24187C2.34375 6.95437 2.24187 6.66875 2.24187 6.3925C2.24187 6.22062 2.30875 6.07125 2.44062 5.94938C2.57125 5.8275 2.73875 5.76688 2.93875 5.76688C3.1025 5.76688 3.24375 5.815 3.35875 5.91062C3.46813 6.0025 3.5625 6.13875 3.63812 6.31312C3.7225 6.50437 3.81437 6.66563 3.91125 6.79125C4.00562 6.91438 4.14 7.01687 4.31188 7.0975C4.485 7.1775 4.71812 7.21937 5.00437 7.21937C5.39875 7.21937 5.7225 7.13625 5.965 6.9725C6.20312 6.81313 6.31813 6.62063 6.31813 6.38562C6.31813 6.20062 6.2575 6.05437 6.13437 5.94C6.00437 5.82 5.83313 5.72688 5.62563 5.6625C5.40875 5.59625 5.11438 5.52375 4.75062 5.44875C4.255 5.34438 3.83437 5.22062 3.50062 5.08C3.15875 4.93625 2.8825 4.7375 2.68125 4.48875C2.47625 4.23563 2.3725 3.91875 2.3725 3.54625C2.3725 3.19125 2.48125 2.87125 2.69625 2.595C2.90938 2.32063 3.22062 2.10625 3.6225 1.96063C4.01813 1.81625 4.48875 1.74312 5.02187 1.74312C5.4475 1.74312 5.82188 1.79187 6.135 1.88812C6.44938 1.98438 6.71438 2.11438 6.9225 2.275C7.1325 2.4375 7.28875 2.60938 7.38625 2.78937C7.485 2.97062 7.53562 3.15125 7.53562 3.32562C7.53562 3.49375 7.47 3.64687 7.34 3.77938C7.20875 3.91375 7.04375 3.98125 6.85 3.98125C6.67375 3.98125 6.535 3.93813 6.43938 3.855C6.35 3.77688 6.25688 3.655 6.15438 3.48125C6.03562 3.25875 5.89125 3.08313 5.72625 2.95875C5.56562 2.83813 5.29813 2.77813 4.92938 2.77813C4.58813 2.77813 4.30937 2.84563 4.10313 2.97938C3.90438 3.1075 3.8075 3.255 3.8075 3.43C3.8075 3.53688 3.83875 3.62625 3.90312 3.70312C3.97062 3.78563 4.06625 3.85625 4.1875 3.91625C4.3125 3.97812 4.44187 4.02812 4.57125 4.06313C4.70375 4.09937 4.92562 4.15375 5.23125 4.22312C5.6175 4.30438 5.97188 4.39625 6.28562 4.49563C6.60375 4.595 6.8775 4.71813 7.1025 4.8625C7.33063 5.00938 7.51125 5.19688 7.64 5.42188C7.76875 5.64875 7.83375 5.92688 7.83375 6.25063C7.83313 6.6375 7.72062 6.99062 7.49937 7.29938Z" fill="white"/>
</svg>
