<svg width="40" height="40" viewBox="0 0 40 40" fill="none" xmlns="http://www.w3.org/2000/svg">
<path d="M13.1005 19.9998C10.9605 18.5798 8.60048 17.4598 6.04048 16.7798C8.60048 17.4598 10.9605 18.5798 13.1005 19.9998ZM33.9605 16.7798C31.3805 17.4598 28.9805 18.5998 26.8205 20.0598C28.9805 18.5998 31.3805 17.4598 33.9605 16.7798Z" fill="#4EA4DC"/>
<path d="M26.98 15.26C26.62 9.68001 24.36 4.24 20.12 0C15.84 4.28 13.48 9.72001 13.02 15.26C15.58 16.62 17.94 18.38 20 20.52C22.06 18.4 24.42 16.64 26.98 15.26ZM13.98 20.56C13.7 20.36 13.38 20.18 13.08 19.98C13.38 20.2 13.7 20.36 13.98 20.56ZM26.82 20.06C26.56 20.24 26.28 20.38 26.02 20.58C26.28 20.38 26.56 20.24 26.82 20.06ZM20 26.9C15.7 20.34 8.36001 16 0 16C0 26.64 6.72001 35.64 16.06 38.98C17.32 39.44 18.64 39.78 20 40C21.36 39.76 22.66 39.42 23.94 38.98C33.28 35.64 40 26.64 40 16C31.64 16 24.3 20.34 20 26.9Z" fill="#4EA4DC"/>
</svg>
