<svg width="10" height="11" viewBox="0 0 10 11" fill="none" xmlns="http://www.w3.org/2000/svg">
<path d="M9.44444 7.44444C8.77778 7.44444 8.11111 7.33333 7.44444 7.11111C7.27778 7.05556 7.05553 7.11111 6.88889 7.22222L5.66667 8.44444C4.11113 7.66667 2.83333 6.33333 2 4.77778L3.22222 3.55556C3.38889 3.38889 3.44444 3.16667 3.33333 3C3.16667 2.38889 3.05556 1.72222 3.05556 1.05556C3.05556 0.722222 2.83333 0.5 2.5 0.5H0.555556C0.222222 0.5 0 0.722222 0 1.05556C0 6.27778 4.22222 10.5 9.44444 10.5C9.77778 10.5 10 10.2778 10 9.94444V8C10 7.66667 9.77778 7.44444 9.44444 7.44444ZM8.88889 5.5H10C10 2.72222 7.77778 0.5 5 0.5V1.61111C7.16667 1.61111 8.88889 3.33333 8.88889 5.5ZM6.66667 5.5H7.77778C7.77778 3.94444 6.55556 2.72222 5 2.72222V3.83333C5.94444 3.83333 6.66667 4.55556 6.66667 5.5Z" fill="white"/>
</svg>
