<svg width="10" height="10" viewBox="0 0 10 10" fill="none" xmlns="http://www.w3.org/2000/svg">
<path d="M4.99996 3.33366C4.07913 3.33366 3.33329 4.07949 3.33329 5.00033C3.33329 5.92116 4.07913 6.66699 4.99996 6.66699C5.92079 6.66699 6.66663 5.92116 6.66663 5.00033C6.66663 4.07949 5.92079 3.33366 4.99996 3.33366ZM8.72496 4.58366C8.53329 2.84616 7.15413 1.46699 5.41663 1.27533V0.416992H4.58329V1.27533C2.84579 1.46699 1.46663 2.84616 1.27496 4.58366H0.416626V5.41699H1.27496C1.46663 7.15449 2.84579 8.53366 4.58329 8.72532V9.58366H5.41663V8.72532C7.15413 8.53366 8.53329 7.15449 8.72496 5.41699H9.58329V4.58366H8.72496ZM4.99996 7.91699C3.38954 7.91699 2.08329 6.61074 2.08329 5.00033C2.08329 3.38991 3.38954 2.08366 4.99996 2.08366C6.61038 2.08366 7.91663 3.38991 7.91663 5.00033C7.91663 6.61074 6.61038 7.91699 4.99996 7.91699Z" fill="white"/>
</svg>
